# xmcd
#
# Track frame offsets: 
#        150
#        19966
#        36396
#        49549
#        68103
#        87404
#        103718
#        120684
#        136644
#        149046
#        169832
#
# Disc length: 2535 seconds
#
# Revision: 2
# Processed by: cddbd v1.5.2PL0 Copyright (c) Steve Scherf et al.
# Submitted via: ExactAudioCopyFreeDBPlugin 1.0
#
DISCID=9c09e50b
DTITLE=Johnny Nicholas - Thrill On The Hill
DYEAR=1994
DGENRE=Blues
TTITLE0=Kind Hearted Woman
TTITLE1=House Cleaning Blues
TTITLE2=My Rice Ain't Got No Gravy
TTITLE3=Prince Charming
TTITLE4=Blue and Lonesome
TTITLE5=Mandolin Boogie
TTITLE6=John The Revelator
TTITLE7=Sleeping With The Devil
TTITLE8=Let's Go To Big Houston
TTITLE9=Tomorrow Night
TTITLE10=Johnny's Deathray Boogie
EXTD=C&P 1994 Antone's Records  500 San Marcos Suite 200\nAustin Texas
EXTT0=
EXTT1=
EXTT2=
EXTT3=
EXTT4=
EXTT5=
EXTT6=
EXTT7=
EXTT8=
EXTT9=
EXTT10=
PLAYORDER=
